<svg xmlns="http://www.w3.org/2000/svg" width="25.1" height="22.421" viewBox="0 0 25.1 22.421"><defs><style>.a,.b{fill:none;}.b{stroke:#fafafa;stroke-width:5px;}.c,.d{stroke:none;}.d{fill:#fafafa;}</style></defs><g transform="translate(-354 -874)"><g class="a" transform="translate(354 874)"><path class="c" d="M10,0A10,10,0,1,1,0,10,10,10,0,0,1,10,0Z"/><path class="d" d="M 10 5 C 7.242989540100098 5 5 7.242989540100098 5 10 C 5 12.75700950622559 7.242989540100098 15 10 15 C 12.75700950622559 15 15 12.75700950622559 15 10 C 15 7.242989540100098 12.75700950622559 5 10 5 M 10 0 C 15.52285003662109 0 20 4.477149963378906 20 10 C 20 15.52285003662109 15.52285003662109 20 10 20 C 4.477149963378906 20 0 15.52285003662109 0 10 C 0 4.477149963378906 4.477149963378906 0 10 0 Z"/></g><line class="b" x2="6" y2="5" transform="translate(371.5 889.5)"/></g></svg>